<svg width="24" height="24" viewBox="0 0 24 24" fill="none" xmlns="http://www.w3.org/2000/svg">
<path d="M23.597 9.9031L12.7969 0.303215C12.5774 0.107903 12.2938 0 12 0C11.7062 0 11.4226 0.107903 11.2031 0.303215L0.403026 9.9031C0.165106 10.1144 0.0208869 10.4116 0.0020956 10.7293C-0.0166957 11.047 0.0914801 11.3591 0.302826 11.597C0.514171 11.8349 0.811374 11.9792 1.12905 11.9979C1.44673 12.0167 1.75886 11.9086 1.99678 11.6972L2.39992 11.339V22.8C2.39988 22.9576 2.43089 23.1137 2.49118 23.2593C2.55147 23.4049 2.63986 23.5372 2.7513 23.6486C2.86274 23.7601 2.99504 23.8484 3.14065 23.9087C3.28626 23.969 3.44233 24 3.59993 24H20.4001C20.5577 24 20.7137 23.969 20.8593 23.9087C21.005 23.8484 21.1373 23.7601 21.2487 23.6486C21.3601 23.5372 21.4485 23.4049 21.5088 23.2593C21.5691 23.1137 21.6001 22.9576 21.6001 22.8V11.339L22.0032 11.6973C22.121 11.8019 22.2583 11.8823 22.4072 11.9339C22.5561 11.9855 22.7137 12.0073 22.871 11.998C23.0282 11.9887 23.1822 11.9485 23.3239 11.8797C23.4657 11.8109 23.5925 11.7149 23.6972 11.5971C23.8018 11.4793 23.8822 11.342 23.9338 11.1931C23.9854 11.0442 24.0072 10.8866 23.9979 10.7293C23.9886 10.572 23.9484 10.4181 23.8796 10.2764C23.8108 10.1346 23.7148 10.0078 23.597 9.90314V9.9031ZM8.6211 21.6C8.86566 20.8989 9.3223 20.2911 9.92773 19.8611C10.5332 19.4311 11.2574 19.2 12 19.2C12.7426 19.2 13.4668 19.4311 14.0723 19.8611C14.6777 20.2911 15.1343 20.8989 15.3789 21.6H8.6211ZM10.2 15.0001C10.2 14.6441 10.3056 14.2961 10.5033 14.0001C10.7011 13.7041 10.9823 13.4734 11.3112 13.3371C11.6401 13.2009 12.002 13.1653 12.3512 13.2347C12.7003 13.3042 13.0211 13.4756 13.2728 13.7273C13.5245 13.9791 13.696 14.2998 13.7654 14.649C13.8349 14.9981 13.7992 15.36 13.663 15.6889C13.5268 16.0178 13.296 16.299 13 16.4967C12.704 16.6945 12.356 16.8001 12 16.8001C11.5228 16.7996 11.0652 16.6098 10.7278 16.2723C10.3903 15.9349 10.2005 15.4773 10.2 15.0001V15.0001ZM19.2001 21.6H17.8788C17.7128 20.8044 17.387 20.0509 16.9211 19.385C16.4552 18.7191 15.8589 18.1547 15.1683 17.7262C15.8296 16.9716 16.196 16.0035 16.2 15.0001C16.2 13.8862 15.7575 12.8179 14.9699 12.0303C14.1822 11.2427 13.1139 10.8002 12 10.8002C10.8861 10.8002 9.81779 11.2427 9.03013 12.0303C8.24247 12.8179 7.79996 13.8862 7.79996 15.0001C7.80402 16.0035 8.17041 16.9716 8.83166 17.7262C8.14111 18.1547 7.54479 18.7191 7.07888 19.385C6.61296 20.0509 6.28716 20.8044 6.12123 21.6H4.79994V9.20562L12 2.80573L19.2001 9.20562V21.6Z" fill="#673AB7"/>
</svg>
