<svg width="24" height="24" viewBox="0 0 24 24" fill="none" xmlns="http://www.w3.org/2000/svg">
<path d="M5.16511 11.4148C4.87693 11.4148 4.64334 11.6666 4.64334 11.9771V12.8206C4.64334 13.1311 4.87693 13.3829 5.16511 13.3829C5.45328 13.3829 5.68687 13.1311 5.68687 12.8206V11.9771C5.68687 11.6666 5.45328 11.4148 5.16511 11.4148Z" fill="#673AB7"/>
<path d="M23.6204 11.6048C23.3433 11.52 23.0547 11.6936 22.9761 11.9925C22.8747 12.3783 22.6336 12.6925 22.323 12.8806C22.1066 10.9358 21.054 9.14443 19.3035 7.7739C18.3407 7.02009 17.2201 6.43835 16.0026 6.04759C16.1775 5.54851 16.2681 5.01671 16.2681 4.47057C16.2681 2.00546 14.4073 0 12.1201 0C9.83285 0 7.97203 2.00546 7.97203 4.47057C7.97203 5.04117 8.0708 5.59496 8.26073 6.11237C7.68287 6.30992 7.12678 6.55206 6.59781 6.83688C6.08461 6.48177 5.47925 6.28371 4.84249 6.28371H2.69992C2.38337 6.28371 2.09796 6.48919 1.97686 6.80444C1.85576 7.11962 1.9227 7.48244 2.14654 7.72369L3.62057 9.31234C3.00014 10.117 2.55711 11.0048 2.31423 11.9345H0.782646C0.350417 11.9345 0 12.3122 0 12.778V15.4384C0 16.4164 0.459152 17.3102 1.22844 17.8293C2.01104 18.357 3.21605 19.1079 4.67553 19.8153V23.1565C4.67553 23.6223 5.02595 24 5.45817 24H8.21726C8.5898 24 8.91074 23.717 8.98447 23.3235L9.33128 21.4717C10.3386 21.6895 11.3106 21.7996 12.2302 21.7996C13.0553 21.7996 13.8701 21.7207 14.6619 21.5645L15.0462 23.3474C15.1286 23.7295 15.4445 23.9999 15.8086 23.9999H18.5143C18.9465 23.9999 19.2969 23.6223 19.2969 23.1564V19.4989C21.1199 18.0733 22.2101 16.1378 22.3497 14.084C23.1235 13.8305 23.752 13.1665 23.9801 12.2991C24.0587 12.0003 23.8976 11.6894 23.6204 11.6048ZM9.53733 4.47057C9.53733 2.93573 10.696 1.68701 12.1201 1.68701C13.5442 1.68701 14.7028 2.93573 14.7028 4.47057C14.7028 4.88918 14.6175 5.29389 14.454 5.66351C13.7319 5.53457 12.9871 5.46816 12.2302 5.46816C11.4011 5.46816 10.5881 5.54683 9.80275 5.70079C9.62843 5.32122 9.53733 4.90374 9.53733 4.47057ZM18.0835 18.3528C17.8638 18.5088 17.7316 18.7734 17.7316 19.057V22.3129H16.4302L16.0125 20.3748C15.965 20.1548 15.8377 19.9645 15.6591 19.8465C15.4804 19.7284 15.2653 19.6926 15.0619 19.7469C14.1537 19.9894 13.2009 20.1124 12.2302 20.1124C11.197 20.1124 10.0802 19.9539 8.91074 19.6412C8.7035 19.5858 8.48425 19.624 8.30377 19.7472C8.12335 19.8702 7.99739 20.0674 7.95513 20.293L7.5768 22.3128H6.24082V19.2638C6.24082 18.9259 6.05366 18.6206 5.76523 18.488C4.18512 17.7615 2.87742 16.9509 2.05883 16.3991C1.74979 16.1905 1.56524 15.8313 1.56524 15.4383V13.6214H2.94165C3.32604 13.6214 3.65355 13.3204 3.71444 12.9114C3.8394 12.0717 4.18862 11.2544 4.73339 10.5116L4.76814 10.5491C4.92097 10.7138 5.12127 10.7962 5.32152 10.7962C5.52178 10.7962 5.72214 10.7138 5.87491 10.5491C6.18056 10.2197 6.18056 9.68562 5.87491 9.35621L4.58933 7.97061H4.84239C5.47534 7.97061 6.04892 8.34771 6.33928 8.95475C6.53734 9.36874 7.00938 9.53137 7.39355 9.31791C7.77773 9.10445 7.92862 8.5957 7.73056 8.18165C7.72357 8.16703 7.71611 8.15281 7.70896 8.1383C9.0632 7.49358 10.6078 7.15505 12.2302 7.15505C14.5644 7.15505 16.7497 7.85949 18.3835 9.13864C19.9419 10.3587 20.8001 11.9551 20.8001 13.6337C20.8001 15.406 19.81 17.1261 18.0835 18.3528Z" fill="#673AB7"/>
</svg>
