<svg width="24" height="24" viewBox="0 0 24 24" fill="none" xmlns="http://www.w3.org/2000/svg">
<path d="M12 0C5.38275 0 0 5.38347 0 12.0004C0 18.6173 5.38275 24 12 24C18.6169 24 24 18.6173 24 12.0004C24 5.38347 18.617 0 12 0ZM12 22.1071C6.42673 22.1071 1.89279 17.5733 1.89279 12.0003C1.89279 6.42673 6.42673 1.89279 12 1.89279C17.5733 1.89279 22.1072 6.42673 22.1072 12.0003C22.1072 17.5733 17.5733 22.1071 12 22.1071Z" fill="#673AB7"/>
<path d="M10.1024 9.64846C10.1024 8.88928 11.2128 8.75964 12.176 8.75964C13.0837 8.75964 14.3242 9.18509 15.3613 9.72279L15.5646 7.6303C15.0459 7.33377 13.8426 6.98186 12.6204 6.90831L12.9166 4.77869H10.9352L11.2318 6.90831C8.67669 7.14869 7.84323 8.62994 7.84323 9.87067C7.84323 12.9999 13.6754 12.334 13.6754 14.2589C13.6754 14.9817 12.9909 15.2403 11.787 15.2403C10.1579 15.2403 8.9353 14.6669 8.30621 14.0739L7.99111 16.4257C8.58418 16.7776 9.78706 17.0923 11.2318 17.1667L10.9352 19.222H12.9166L12.6204 17.1478C15.62 16.8884 16.1569 15.2957 16.1569 14.2407C16.157 10.5191 10.1024 11.4444 10.1024 9.64846Z" fill="#673AB7"/>
</svg>
