<svg width="24" height="24" viewBox="0 0 24 24" fill="none" xmlns="http://www.w3.org/2000/svg">
<path d="M21.75 6.4H18C17.8011 6.4 17.6103 6.48429 17.4697 6.63431C17.329 6.78434 17.25 6.98783 17.25 7.2C17.25 7.41217 17.329 7.61566 17.4697 7.76569C17.6103 7.91571 17.8011 8 18 8H21.75C21.9489 8 22.1397 8.08429 22.2803 8.23431C22.421 8.38434 22.5 8.58783 22.5 8.8V21.6C22.5 21.8122 22.421 22.0157 22.2803 22.1657C22.1397 22.3157 21.9489 22.4 21.75 22.4H2.25C2.05109 22.4 1.86032 22.3157 1.71967 22.1657C1.57902 22.0157 1.5 21.8122 1.5 21.6V8.8C1.5 8.58783 1.57902 8.38434 1.71967 8.23431C1.86032 8.08429 2.05109 8 2.25 8H8.25C8.25 8.42435 8.40804 8.83131 8.68934 9.13137C8.97064 9.43143 9.35218 9.6 9.75 9.6H14.25C14.6478 9.6 15.0294 9.43143 15.3107 9.13137C15.592 8.83131 15.75 8.42435 15.75 8V1.6C15.75 1.17565 15.592 0.768687 15.3107 0.468629C15.0294 0.168571 14.6478 0 14.25 0H9.75C9.35218 0 8.97064 0.168571 8.68934 0.468629C8.40804 0.768687 8.25 1.17565 8.25 1.6V6.4H2.25C1.65326 6.4 1.08097 6.65286 0.65901 7.10294C0.237053 7.55303 0 8.16348 0 8.8L0 21.6C0 22.2365 0.237053 22.847 0.65901 23.2971C1.08097 23.7471 1.65326 24 2.25 24H21.75C22.3467 24 22.919 23.7471 23.341 23.2971C23.7629 22.847 24 22.2365 24 21.6V8.8C24 8.16348 23.7629 7.55303 23.341 7.10294C22.919 6.65286 22.3467 6.4 21.75 6.4ZM9.75 1.6H14.25V8H9.75V1.6Z" fill="#673AB7"/>
<path d="M3 20C3 20.2121 3.07902 20.4156 3.21967 20.5657C3.36032 20.7157 3.55109 20.8 3.75 20.8H9.75C9.94891 20.8 10.1397 20.7157 10.2803 20.5657C10.421 20.4156 10.5 20.2121 10.5 20C10.4997 19.3449 10.3487 18.7 10.06 18.1218C9.77142 17.5436 9.35411 17.0499 8.84475 16.684C9.27177 16.2397 9.56493 15.6697 9.68676 15.0468C9.8086 14.4239 9.75358 13.7764 9.52873 13.1871C9.30389 12.5977 8.91942 12.0932 8.42447 11.7381C7.92951 11.3829 7.34652 11.1932 6.75 11.1932C6.15348 11.1932 5.57049 11.3829 5.07553 11.7381C4.58058 12.0932 4.19611 12.5977 3.97127 13.1871C3.74642 13.7764 3.6914 14.4239 3.81324 15.0468C3.93507 15.6697 4.22823 16.2397 4.65525 16.684C4.14589 17.0499 3.72858 17.5436 3.43996 18.1218C3.15135 18.7 3.00027 19.3449 3 20V20ZM5.25 14.4C5.25 14.0835 5.33797 13.7742 5.5028 13.5111C5.66762 13.2479 5.90189 13.0429 6.17598 12.9218C6.45006 12.8007 6.75166 12.769 7.04264 12.8307C7.33361 12.8925 7.60088 13.0448 7.81066 13.2686C8.02044 13.4924 8.1633 13.7775 8.22118 14.0878C8.27906 14.3982 8.24935 14.7199 8.13582 15.0123C8.02229 15.3046 7.83003 15.5545 7.58336 15.7303C7.33668 15.9061 7.04667 16 6.75 16C6.35218 16 5.97064 15.8314 5.68934 15.5313C5.40804 15.2313 5.25 14.8243 5.25 14.4ZM6.75 17.6C7.21521 17.6006 7.66885 17.7547 8.04871 18.0411C8.42857 18.3276 8.71606 18.7324 8.87175 19.2H4.62825C4.78394 18.7324 5.07143 18.3276 5.45129 18.0411C5.83115 17.7547 6.28479 17.6006 6.75 17.6V17.6Z" fill="#673AB7"/>
<path d="M18.75 19.2H14.25C14.0511 19.2 13.8603 19.1157 13.7197 18.9657C13.579 18.8156 13.5 18.6121 13.5 18.4C13.5 18.1878 13.579 17.9843 13.7197 17.8343C13.8603 17.6843 14.0511 17.6 14.25 17.6H18.75C18.9489 17.6 19.1397 17.6843 19.2803 17.8343C19.421 17.9843 19.5 18.1878 19.5 18.4C19.5 18.6121 19.421 18.8156 19.2803 18.9657C19.1397 19.1157 18.9489 19.2 18.75 19.2Z" fill="#673AB7"/>
<path d="M20.25 16H14.25C14.0511 16 13.8603 15.9157 13.7197 15.7657C13.579 15.6157 13.5 15.4122 13.5 15.2C13.5 14.9879 13.579 14.7844 13.7197 14.6343C13.8603 14.4843 14.0511 14.4 14.25 14.4H20.25C20.4489 14.4 20.6397 14.4843 20.7803 14.6343C20.921 14.7844 21 14.9879 21 15.2C21 15.4122 20.921 15.6157 20.7803 15.7657C20.6397 15.9157 20.4489 16 20.25 16Z" fill="#673AB7"/>
<path d="M20.25 12.8H14.25C14.0511 12.8 13.8603 12.7157 13.7197 12.5656C13.579 12.4156 13.5 12.2121 13.5 12C13.5 11.7878 13.579 11.5843 13.7197 11.4343C13.8603 11.2842 14.0511 11.2 14.25 11.2H20.25C20.4489 11.2 20.6397 11.2842 20.7803 11.4343C20.921 11.5843 21 11.7878 21 12C21 12.2121 20.921 12.4156 20.7803 12.5656C20.6397 12.7157 20.4489 12.8 20.25 12.8Z" fill="#673AB7"/>
<path d="M12.015 6.40005C11.9165 6.40057 11.8189 6.3804 11.7277 6.34068C11.6365 6.30096 11.5536 6.24248 11.4836 6.16856C11.3422 6.01928 11.2622 5.81622 11.2612 5.60405C11.2603 5.39188 11.3383 5.18797 11.4783 5.03719C11.6182 4.88641 11.8086 4.80111 12.0075 4.80005H12.015C12.2139 4.80005 12.4047 4.88433 12.5453 5.03436C12.686 5.18439 12.765 5.38788 12.765 5.60005C12.765 5.81222 12.686 6.01571 12.5453 6.16573C12.4047 6.31576 12.2139 6.40005 12.015 6.40005Z" fill="#673AB7"/>
</svg>
