<svg width="24" height="20" viewBox="0 0 24 20" fill="none" xmlns="http://www.w3.org/2000/svg">
<path d="M20.8953 0H3.10474C1.39299 0 0 1.6825 0 3.75V16.25C0 18.3179 1.39299 20 3.10474 20H20.8953C22.6074 20 24 18.3179 24 16.25V3.75C24 1.68208 22.6074 0 20.8953 0ZM3.10474 2.5H20.8953C21.4658 2.5 21.9302 3.06083 21.9302 3.75V5.355H2.06983V3.75C2.06983 3.06083 2.53416 2.5 3.10474 2.5ZM20.8953 17.4996H3.10474C2.53416 17.4996 2.06983 16.9387 2.06983 16.2496V8.68792H21.9302V16.2496C21.9302 16.9387 21.4658 17.4996 20.8953 17.4996Z" fill="#673AB7"/>
</svg>
