<svg width="24" height="24" viewBox="0 0 24 24" fill="none" xmlns="http://www.w3.org/2000/svg">
<path d="M23.0017 2.97272H20.1802V1.04091C20.1802 0.46598 19.7333 0 19.1819 0C18.6305 0 18.1836 0.46598 18.1836 1.04091V2.97272H5.81637V1.04091C5.81637 0.46598 5.36948 0 4.8181 0C4.26672 0 3.81983 0.46598 3.81983 1.04091V2.97272H0.998272C0.446893 2.97272 0 3.4387 0 4.01363V22.9591C0 23.534 0.446893 24 0.998272 24H23.0017C23.5531 24 24 23.534 24 22.9591V4.01363C24 3.4387 23.5531 2.97272 23.0017 2.97272ZM22.0035 5.05454V7.36732H1.99654V5.05454H22.0035ZM1.99654 21.9181V9.44914H22.0035V21.9182H1.99654V21.9181Z" fill="#673AB7"/>
<path d="M16.1425 12.188C15.797 11.7401 15.1685 11.669 14.739 12.0292L12 14.3262L9.26108 12.0292C8.83127 11.669 8.20302 11.7402 7.85762 12.188C7.5121 12.6361 7.58032 13.2913 8.00991 13.6515L10.4072 15.6619L8.00991 17.6722C7.58032 18.0325 7.5121 18.6877 7.85762 19.1357C8.05483 19.3915 8.34422 19.5242 8.63616 19.5242C8.85567 19.5242 9.07673 19.4492 9.26108 19.2945L12 16.9977L14.7389 19.2945C14.9234 19.4492 15.1443 19.5242 15.3638 19.5242C15.6558 19.5242 15.9452 19.3913 16.1424 19.1357C16.4879 18.6877 16.4197 18.0325 15.9901 17.6722L13.5928 15.6619L15.9901 13.6515C16.4198 13.2914 16.488 12.6362 16.1425 12.188Z" fill="#673AB7"/>
</svg>
